<svg width="127" height="121" viewBox="0 0 127 121" fill="none" xmlns="http://www.w3.org/2000/svg">
<path d="M8.16236 41.5494C8.16224 33.3418 10.591 25.3179 15.1424 18.4903C19.6937 11.6626 26.1635 6.33696 33.7357 3.18529C41.308 0.0336208 49.6432 -0.80289 57.6899 0.781297C65.7366 2.36548 73.1343 6.29939 78.9495 12.0867C83.5249 9.82656 88.6356 8.87628 93.7168 9.34086C98.7981 9.80544 103.652 11.6668 107.743 14.7193C111.833 17.7718 115.001 21.8965 116.896 26.6379C118.791 31.3792 119.339 36.5526 118.481 41.5864C119.743 41.7036 120.968 42.08 122.078 42.6921C123.189 43.3041 124.161 44.1387 124.935 45.1437C125.709 46.1487 126.268 47.3026 126.576 48.5333C126.885 49.764 126.937 51.0451 126.728 52.2967C122.558 77.4015 112.244 93.2916 95.8045 99.9763V106.181C95.8045 109.854 94.3465 113.377 91.7513 115.974C89.1562 118.571 85.6364 120.031 81.9662 120.031H45.0643C41.3942 120.031 37.8744 118.571 35.2792 115.974C32.684 113.377 31.2261 109.854 31.2261 106.181V99.9763C14.7863 93.2916 4.47217 77.4015 0.302246 52.2967C0.100999 51.0784 0.145999 49.832 0.434582 48.6313C0.723165 47.4307 1.24947 46.3002 1.98234 45.3067C2.71522 44.3133 3.63977 43.477 4.70129 42.8475C5.7628 42.218 6.93971 41.808 8.16236 41.6418V41.5494ZM17.3878 41.5494H26.6133C26.6133 35.4275 29.0432 29.5564 33.3685 25.2275C37.6938 20.8987 43.5602 18.4668 49.677 18.4668C55.7939 18.4668 61.6603 20.8987 65.9855 25.2275C70.3108 29.5564 72.7407 35.4275 72.7407 41.5494H81.9662C81.9662 32.9788 78.5643 24.7591 72.5089 18.6987C66.4535 12.6384 58.2407 9.23368 49.677 9.23368C41.1134 9.23368 32.9005 12.6384 26.8451 18.6987C20.7897 24.7591 17.3878 32.9788 17.3878 41.5494ZM35.8388 41.5494H63.5153C63.5153 37.8763 62.0573 34.3536 59.4621 31.7563C56.867 29.159 53.3472 27.6998 49.677 27.6998C46.0069 27.6998 42.4871 29.159 39.8919 31.7563C37.2968 34.3536 35.8388 37.8763 35.8388 41.5494ZM99.181 41.5494H109.061C109.758 38.8208 109.823 35.9691 109.251 33.2115C108.68 30.454 107.487 27.8634 105.763 25.6371C104.04 23.4109 101.831 21.6078 99.3062 20.3652C96.781 19.1226 94.0056 18.4733 91.1917 18.4668C88.9776 18.4668 86.8742 18.8545 84.9184 19.5655C86.5513 22.1877 87.8982 25.013 88.9315 27.9768C90.6886 27.5407 92.535 27.6305 94.2416 28.2351C95.9482 28.8398 97.4398 29.9326 98.5314 31.3781C99.623 32.8236 100.266 34.558 100.382 36.3662C100.497 38.1743 100.08 39.9766 99.181 41.5494ZM86.579 101.564H40.4516V106.181C40.4516 107.405 40.9375 108.58 41.8026 109.445C42.6676 110.311 43.8409 110.797 45.0643 110.797H81.9662C83.1896 110.797 84.3629 110.311 85.2279 109.445C86.093 108.58 86.579 107.405 86.579 106.181V101.564ZM37.2042 92.3313H89.8263C104.458 87.6225 113.72 74.3084 117.632 50.7825H9.39857C13.3102 74.3084 22.5726 87.6225 37.2042 92.3313Z" fill="#FF7F0F"/>
</svg>
