<svg width="20" height="20" viewBox="0 0 20 20" fill="none" xmlns="http://www.w3.org/2000/svg">
<g clip-path="url(#clip0_8527_1722)">
<path d="M13.825 6.31675L8.33332 11.8084L5.34166 8.82508L4.16666 10.0001L8.33332 14.1667L15 7.50008L13.825 6.31675ZM9.99999 1.66675C5.39999 1.66675 1.66666 5.40008 1.66666 10.0001C1.66666 14.6001 5.39999 18.3334 9.99999 18.3334C14.6 18.3334 18.3333 14.6001 18.3333 10.0001C18.3333 5.40008 14.6 1.66675 9.99999 1.66675ZM9.99999 16.6667C6.31666 16.6667 3.33332 13.6834 3.33332 10.0001C3.33332 6.31675 6.31666 3.33341 9.99999 3.33341C13.6833 3.33341 16.6667 6.31675 16.6667 10.0001C16.6667 13.6834 13.6833 16.6667 9.99999 16.6667Z" fill="white"/>
</g>
<defs>
<clipPath id="clip0_8527_1722">
<rect width="20" height="20" fill="white"/>
</clipPath>
</defs>
</svg>
