<svg width="20" height="20" viewBox="0 0 20 20" fill="none" xmlns="http://www.w3.org/2000/svg">
<path d="M13.3332 8.33341V18.3334C13.3332 18.3334 6.6665 16.6667 6.6665 9.16675V8.33341C6.6665 7.72508 6.99984 7.19175 7.49984 6.90008L8.5415 7.50008L9.99984 6.66675L11.4582 7.50008L12.4998 6.90008C12.9998 7.19175 13.3332 7.72508 13.3332 8.33341ZM9.99984 5.41675L11.4582 6.25008L12.7248 5.52508C12.2665 4.71675 11.5915 4.11675 10.8082 3.87508C10.7376 3.2678 10.4466 2.70753 9.9904 2.3005C9.53422 1.89346 8.94454 1.66796 8.33317 1.66675V3.33341C8.69984 3.33341 8.99984 3.57508 9.1165 3.90841C8.35817 4.16675 7.7165 4.75008 7.27484 5.52508L8.5415 6.25008L9.99984 5.41675Z" fill="currentFill"/>
</svg>
