<svg width="20" height="20" viewBox="0 0 20 20" fill="none" xmlns="http://www.w3.org/2000/svg">
<g clip-path="url(#clip0_235_4580)">
<path d="M9.16666 12.4998H10.8333V14.1665H9.16666V12.4998ZM9.16666 5.83317H10.8333V10.8332H9.16666V5.83317ZM9.99166 1.6665C5.39166 1.6665 1.66666 5.39984 1.66666 9.99984C1.66666 14.5998 5.39166 18.3332 9.99166 18.3332C14.6 18.3332 18.3333 14.5998 18.3333 9.99984C18.3333 5.39984 14.6 1.6665 9.99166 1.6665ZM10 16.6665C6.31666 16.6665 3.33333 13.6832 3.33333 9.99984C3.33333 6.3165 6.31666 3.33317 10 3.33317C13.6833 3.33317 16.6667 6.3165 16.6667 9.99984C16.6667 13.6832 13.6833 16.6665 10 16.6665Z" fill="white"/>
</g>
<defs>
<clipPath id="clip0_235_4580">
<rect width="20" height="20" fill="white"/>
</clipPath>
</defs>
</svg>
