<svg width="80" height="87" viewBox="0 0 80 87" fill="none" xmlns="http://www.w3.org/2000/svg">
<rect y="7" width="80" height="80" rx="40" fill="#746AE9"/>
<g filter="url(#filter0_i_2983_4139)">
<path fill-rule="evenodd" clip-rule="evenodd" d="M32.566 2.28955C33.0465 1.67363 33.6436 1.1584 34.3232 0.77325C35.0029 0.388104 35.7517 0.140594 36.527 0.0448491C37.3023 -0.0508953 38.0888 0.00700162 38.8417 0.215235C39.5946 0.423468 40.2992 0.77796 40.9151 1.25847C43.4703 3.27376 45.8414 5.51216 48.0004 7.94725C47.8489 6.59329 48.1667 5.22834 48.9008 4.0806C49.6349 2.93286 50.7407 2.07188 52.0334 1.64161C53.3261 1.21133 54.7273 1.23783 56.0028 1.71668C57.2783 2.19553 58.3507 3.09771 59.0409 4.27239C62.9801 10.9612 65.9676 20.7511 66.7264 30.5331L66.7554 30.5305L66.7951 31.2654C66.885 32.8438 67.07 36.0666 66.9722 42.134C66.8744 48.2491 65.1903 53.0873 62.7263 57.1455C58.4619 64.4317 50.3798 69.2408 41.3407 69.2408C31.3313 69.2408 23.0827 63.0755 19.2387 55.1891C18.7982 54.2853 18.5697 53.293 18.5706 52.2876C18.5715 51.2822 18.8017 50.2903 19.2438 49.3873C19.6858 48.4843 20.3281 47.6941 21.1216 47.0767C21.9151 46.4594 22.839 46.0312 23.823 45.8248C22.8128 45.7142 21.8416 45.3725 20.9846 44.8262C20.1277 44.2799 19.408 43.5437 18.8814 42.6745C18.3548 41.8053 18.0354 40.8266 17.9478 39.8141C17.8603 38.8016 18.0071 37.7825 18.3768 36.8359C20.3909 31.7571 24.0701 27.513 28.8118 24.7987C24.8435 23.4768 21.0232 22.8053 18.3768 22.6705C17.5008 22.6396 16.6397 22.4348 15.8436 22.068C15.0475 21.7012 14.3323 21.1797 13.7396 20.5339C13.147 19.8881 12.6887 19.1308 12.3915 18.3062C12.0943 17.4816 11.9641 16.6061 12.0085 15.7306C12.0528 14.8552 12.2709 13.9974 12.6499 13.207C13.029 12.4167 13.5614 11.7096 14.2163 11.127C14.8712 10.5444 15.6354 10.0978 16.4645 9.81338C17.2936 9.52892 18.171 9.41222 19.0457 9.47007C23.125 9.67628 29.3934 10.7655 35.7967 13.2718C35.0406 12.4523 34.2897 11.6856 33.5495 10.9902C30.9586 8.97039 30.5461 4.8831 32.566 2.29219M41.3434 35.1254C36.3387 35.1254 32.2408 37.6978 30.6836 41.6687C30.2835 42.6901 29.6353 43.5956 28.7975 44.3037C27.9598 45.0117 26.9589 45.5 25.8851 45.7243C26.9983 45.843 28.0631 46.2424 28.9796 46.8852C29.8961 47.528 30.6344 48.393 31.1251 49.3992C33.0128 53.2776 36.9547 55.4059 41.3407 55.4059C46.3666 55.0093 50.705 51.0092 50.705 45.3542C50.705 39.7018 46.742 35.1227 41.3407 35.1227" fill="#FFC9B1"/>
<path fill-rule="evenodd" clip-rule="evenodd" d="M32.566 2.28955C33.0465 1.67363 33.6436 1.1584 34.3232 0.77325C35.0029 0.388104 35.7517 0.140594 36.527 0.0448491C37.3023 -0.0508953 38.0888 0.00700162 38.8417 0.215235C39.5946 0.423468 40.2992 0.77796 40.9151 1.25847C43.4703 3.27376 45.8414 5.51216 48.0004 7.94725C47.8489 6.59329 48.1667 5.22834 48.9008 4.0806C49.6349 2.93286 50.7407 2.07188 52.0334 1.64161C53.3261 1.21133 54.7273 1.23783 56.0028 1.71668C57.2783 2.19553 58.3507 3.09771 59.0409 4.27239C62.9801 10.9612 65.9676 20.7511 66.7264 30.5331L66.7554 30.5305L66.7951 31.2654C66.885 32.8438 67.07 36.0666 66.9722 42.134C66.8744 48.2491 65.1903 53.0873 62.7263 57.1455C58.4619 64.4317 50.3798 69.2408 41.3407 69.2408C31.3313 69.2408 23.0827 63.0755 19.2387 55.1891C18.7982 54.2853 18.5697 53.293 18.5706 52.2876C18.5715 51.2822 18.8017 50.2903 19.2438 49.3873C19.6858 48.4843 20.3281 47.6941 21.1216 47.0767C21.9151 46.4594 22.839 46.0312 23.823 45.8248C22.8128 45.7142 21.8416 45.3725 20.9846 44.8262C20.1277 44.2799 19.408 43.5437 18.8814 42.6745C18.3548 41.8053 18.0354 40.8266 17.9478 39.8141C17.8603 38.8016 18.0071 37.7825 18.3768 36.8359C20.3909 31.7571 24.0701 27.513 28.8118 24.7987C24.8435 23.4768 21.0232 22.8053 18.3768 22.6705C17.5008 22.6396 16.6397 22.4348 15.8436 22.068C15.0475 21.7012 14.3323 21.1797 13.7396 20.5339C13.147 19.8881 12.6887 19.1308 12.3915 18.3062C12.0943 17.4816 11.9641 16.6061 12.0085 15.7306C12.0528 14.8552 12.2709 13.9974 12.6499 13.207C13.029 12.4167 13.5614 11.7096 14.2163 11.127C14.8712 10.5444 15.6354 10.0978 16.4645 9.81338C17.2936 9.52892 18.171 9.41222 19.0457 9.47007C23.125 9.67628 29.3934 10.7655 35.7967 13.2718C35.0406 12.4523 34.2897 11.6856 33.5495 10.9902C30.9586 8.97039 30.5461 4.8831 32.566 2.29219M41.3434 35.1254C36.3387 35.1254 32.2408 37.6978 30.6836 41.6687C30.2835 42.6901 29.6353 43.5956 28.7975 44.3037C27.9598 45.0117 26.9589 45.5 25.8851 45.7243C26.9983 45.843 28.0631 46.2424 28.9796 46.8852C29.8961 47.528 30.6344 48.393 31.1251 49.3992C33.0128 53.2776 36.9547 55.4059 41.3407 55.4059C46.3666 55.0093 50.705 51.0092 50.705 45.3542C50.705 39.7018 46.742 35.1227 41.3407 35.1227" fill="url(#paint0_radial_2983_4139)"/>
<path fill-rule="evenodd" clip-rule="evenodd" d="M32.566 2.28955C33.0465 1.67363 33.6436 1.1584 34.3232 0.77325C35.0029 0.388104 35.7517 0.140594 36.527 0.0448491C37.3023 -0.0508953 38.0888 0.00700162 38.8417 0.215235C39.5946 0.423468 40.2992 0.77796 40.9151 1.25847C43.4703 3.27376 45.8414 5.51216 48.0004 7.94725C47.8489 6.59329 48.1667 5.22834 48.9008 4.0806C49.6349 2.93286 50.7407 2.07188 52.0334 1.64161C53.3261 1.21133 54.7273 1.23783 56.0028 1.71668C57.2783 2.19553 58.3507 3.09771 59.0409 4.27239C62.9801 10.9612 65.9676 20.7511 66.7264 30.5331L66.7554 30.5305L66.7951 31.2654C66.885 32.8438 67.07 36.0666 66.9722 42.134C66.8744 48.2491 65.1903 53.0873 62.7263 57.1455C58.4619 64.4317 50.3798 69.2408 41.3407 69.2408C31.3313 69.2408 23.0827 63.0755 19.2387 55.1891C18.7982 54.2853 18.5697 53.293 18.5706 52.2876C18.5715 51.2822 18.8017 50.2903 19.2438 49.3873C19.6858 48.4843 20.3281 47.6941 21.1216 47.0767C21.9151 46.4594 22.839 46.0312 23.823 45.8248C22.8128 45.7142 21.8416 45.3725 20.9846 44.8262C20.1277 44.2799 19.408 43.5437 18.8814 42.6745C18.3548 41.8053 18.0354 40.8266 17.9478 39.8141C17.8603 38.8016 18.0071 37.7825 18.3768 36.8359C20.3909 31.7571 24.0701 27.513 28.8118 24.7987C24.8435 23.4768 21.0232 22.8053 18.3768 22.6705C17.5008 22.6396 16.6397 22.4348 15.8436 22.068C15.0475 21.7012 14.3323 21.1797 13.7396 20.5339C13.147 19.8881 12.6887 19.1308 12.3915 18.3062C12.0943 17.4816 11.9641 16.6061 12.0085 15.7306C12.0528 14.8552 12.2709 13.9974 12.6499 13.207C13.029 12.4167 13.5614 11.7096 14.2163 11.127C14.8712 10.5444 15.6354 10.0978 16.4645 9.81338C17.2936 9.52892 18.171 9.41222 19.0457 9.47007C23.125 9.67628 29.3934 10.7655 35.7967 13.2718C35.0406 12.4523 34.2897 11.6856 33.5495 10.9902C30.9586 8.97039 30.5461 4.8831 32.566 2.29219M41.3434 35.1254C36.3387 35.1254 32.2408 37.6978 30.6836 41.6687C30.2835 42.6901 29.6353 43.5956 28.7975 44.3037C27.9598 45.0117 26.9589 45.5 25.8851 45.7243C26.9983 45.843 28.0631 46.2424 28.9796 46.8852C29.8961 47.528 30.6344 48.393 31.1251 49.3992C33.0128 53.2776 36.9547 55.4059 41.3407 55.4059C46.3666 55.0093 50.705 51.0092 50.705 45.3542C50.705 39.7018 46.742 35.1227 41.3407 35.1227" fill="url(#paint1_radial_2983_4139)"/>
<path fill-rule="evenodd" clip-rule="evenodd" d="M32.566 2.28955C33.0465 1.67363 33.6436 1.1584 34.3232 0.77325C35.0029 0.388104 35.7517 0.140594 36.527 0.0448491C37.3023 -0.0508953 38.0888 0.00700162 38.8417 0.215235C39.5946 0.423468 40.2992 0.77796 40.9151 1.25847C43.4703 3.27376 45.8414 5.51216 48.0004 7.94725C47.8489 6.59329 48.1667 5.22834 48.9008 4.0806C49.6349 2.93286 50.7407 2.07188 52.0334 1.64161C53.3261 1.21133 54.7273 1.23783 56.0028 1.71668C57.2783 2.19553 58.3507 3.09771 59.0409 4.27239C62.9801 10.9612 65.9676 20.7511 66.7264 30.5331L66.7554 30.5305L66.7951 31.2654C66.885 32.8438 67.07 36.0666 66.9722 42.134C66.8744 48.2491 65.1903 53.0873 62.7263 57.1455C58.4619 64.4317 50.3798 69.2408 41.3407 69.2408C31.3313 69.2408 23.0827 63.0755 19.2387 55.1891C18.7982 54.2853 18.5697 53.293 18.5706 52.2876C18.5715 51.2822 18.8017 50.2903 19.2438 49.3873C19.6858 48.4843 20.3281 47.6941 21.1216 47.0767C21.9151 46.4594 22.839 46.0312 23.823 45.8248C22.8128 45.7142 21.8416 45.3725 20.9846 44.8262C20.1277 44.2799 19.408 43.5437 18.8814 42.6745C18.3548 41.8053 18.0354 40.8266 17.9478 39.8141C17.8603 38.8016 18.0071 37.7825 18.3768 36.8359C20.3909 31.7571 24.0701 27.513 28.8118 24.7987C24.8435 23.4768 21.0232 22.8053 18.3768 22.6705C17.5008 22.6396 16.6397 22.4348 15.8436 22.068C15.0475 21.7012 14.3323 21.1797 13.7396 20.5339C13.147 19.8881 12.6887 19.1308 12.3915 18.3062C12.0943 17.4816 11.9641 16.6061 12.0085 15.7306C12.0528 14.8552 12.2709 13.9974 12.6499 13.207C13.029 12.4167 13.5614 11.7096 14.2163 11.127C14.8712 10.5444 15.6354 10.0978 16.4645 9.81338C17.2936 9.52892 18.171 9.41222 19.0457 9.47007C23.125 9.67628 29.3934 10.7655 35.7967 13.2718C35.0406 12.4523 34.2897 11.6856 33.5495 10.9902C30.9586 8.97039 30.5461 4.8831 32.566 2.29219M41.3434 35.1254C36.3387 35.1254 32.2408 37.6978 30.6836 41.6687C30.2835 42.6901 29.6353 43.5956 28.7975 44.3037C27.9598 45.0117 26.9589 45.5 25.8851 45.7243C26.9983 45.843 28.0631 46.2424 28.9796 46.8852C29.8961 47.528 30.6344 48.393 31.1251 49.3992C33.0128 53.2776 36.9547 55.4059 41.3407 55.4059C46.3666 55.0093 50.705 51.0092 50.705 45.3542C50.705 39.7018 46.742 35.1227 41.3407 35.1227" fill="url(#paint2_radial_2983_4139)"/>
<path fill-rule="evenodd" clip-rule="evenodd" d="M32.566 2.28955C33.0465 1.67363 33.6436 1.1584 34.3232 0.77325C35.0029 0.388104 35.7517 0.140594 36.527 0.0448491C37.3023 -0.0508953 38.0888 0.00700162 38.8417 0.215235C39.5946 0.423468 40.2992 0.77796 40.9151 1.25847C43.4703 3.27376 45.8414 5.51216 48.0004 7.94725C47.8489 6.59329 48.1667 5.22834 48.9008 4.0806C49.6349 2.93286 50.7407 2.07188 52.0334 1.64161C53.3261 1.21133 54.7273 1.23783 56.0028 1.71668C57.2783 2.19553 58.3507 3.09771 59.0409 4.27239C62.9801 10.9612 65.9676 20.7511 66.7264 30.5331L66.7554 30.5305L66.7951 31.2654C66.885 32.8438 67.07 36.0666 66.9722 42.134C66.8744 48.2491 65.1903 53.0873 62.7263 57.1455C58.4619 64.4317 50.3798 69.2408 41.3407 69.2408C31.3313 69.2408 23.0827 63.0755 19.2387 55.1891C18.7982 54.2853 18.5697 53.293 18.5706 52.2876C18.5715 51.2822 18.8017 50.2903 19.2438 49.3873C19.6858 48.4843 20.3281 47.6941 21.1216 47.0767C21.9151 46.4594 22.839 46.0312 23.823 45.8248C22.8128 45.7142 21.8416 45.3725 20.9846 44.8262C20.1277 44.2799 19.408 43.5437 18.8814 42.6745C18.3548 41.8053 18.0354 40.8266 17.9478 39.8141C17.8603 38.8016 18.0071 37.7825 18.3768 36.8359C20.3909 31.7571 24.0701 27.513 28.8118 24.7987C24.8435 23.4768 21.0232 22.8053 18.3768 22.6705C17.5008 22.6396 16.6397 22.4348 15.8436 22.068C15.0475 21.7012 14.3323 21.1797 13.7396 20.5339C13.147 19.8881 12.6887 19.1308 12.3915 18.3062C12.0943 17.4816 11.9641 16.6061 12.0085 15.7306C12.0528 14.8552 12.2709 13.9974 12.6499 13.207C13.029 12.4167 13.5614 11.7096 14.2163 11.127C14.8712 10.5444 15.6354 10.0978 16.4645 9.81338C17.2936 9.52892 18.171 9.41222 19.0457 9.47007C23.125 9.67628 29.3934 10.7655 35.7967 13.2718C35.0406 12.4523 34.2897 11.6856 33.5495 10.9902C30.9586 8.97039 30.5461 4.8831 32.566 2.29219M41.3434 35.1254C36.3387 35.1254 32.2408 37.6978 30.6836 41.6687C30.2835 42.6901 29.6353 43.5956 28.7975 44.3037C27.9598 45.0117 26.9589 45.5 25.8851 45.7243C26.9983 45.843 28.0631 46.2424 28.9796 46.8852C29.8961 47.528 30.6344 48.393 31.1251 49.3992C33.0128 53.2776 36.9547 55.4059 41.3407 55.4059C46.3666 55.0093 50.705 51.0092 50.705 45.3542C50.705 39.7018 46.742 35.1227 41.3407 35.1227" fill="url(#paint3_radial_2983_4139)"/>
<path fill-rule="evenodd" clip-rule="evenodd" d="M32.566 2.28955C33.0465 1.67363 33.6436 1.1584 34.3232 0.77325C35.0029 0.388104 35.7517 0.140594 36.527 0.0448491C37.3023 -0.0508953 38.0888 0.00700162 38.8417 0.215235C39.5946 0.423468 40.2992 0.77796 40.9151 1.25847C43.4703 3.27376 45.8414 5.51216 48.0004 7.94725C47.8489 6.59329 48.1667 5.22834 48.9008 4.0806C49.6349 2.93286 50.7407 2.07188 52.0334 1.64161C53.3261 1.21133 54.7273 1.23783 56.0028 1.71668C57.2783 2.19553 58.3507 3.09771 59.0409 4.27239C62.9801 10.9612 65.9676 20.7511 66.7264 30.5331L66.7554 30.5305L66.7951 31.2654C66.885 32.8438 67.07 36.0666 66.9722 42.134C66.8744 48.2491 65.1903 53.0873 62.7263 57.1455C58.4619 64.4317 50.3798 69.2408 41.3407 69.2408C31.3313 69.2408 23.0827 63.0755 19.2387 55.1891C18.7982 54.2853 18.5697 53.293 18.5706 52.2876C18.5715 51.2822 18.8017 50.2903 19.2438 49.3873C19.6858 48.4843 20.3281 47.6941 21.1216 47.0767C21.9151 46.4594 22.839 46.0312 23.823 45.8248C22.8128 45.7142 21.8416 45.3725 20.9846 44.8262C20.1277 44.2799 19.408 43.5437 18.8814 42.6745C18.3548 41.8053 18.0354 40.8266 17.9478 39.8141C17.8603 38.8016 18.0071 37.7825 18.3768 36.8359C20.3909 31.7571 24.0701 27.513 28.8118 24.7987C24.8435 23.4768 21.0232 22.8053 18.3768 22.6705C17.5008 22.6396 16.6397 22.4348 15.8436 22.068C15.0475 21.7012 14.3323 21.1797 13.7396 20.5339C13.147 19.8881 12.6887 19.1308 12.3915 18.3062C12.0943 17.4816 11.9641 16.6061 12.0085 15.7306C12.0528 14.8552 12.2709 13.9974 12.6499 13.207C13.029 12.4167 13.5614 11.7096 14.2163 11.127C14.8712 10.5444 15.6354 10.0978 16.4645 9.81338C17.2936 9.52892 18.171 9.41222 19.0457 9.47007C23.125 9.67628 29.3934 10.7655 35.7967 13.2718C35.0406 12.4523 34.2897 11.6856 33.5495 10.9902C30.9586 8.97039 30.5461 4.8831 32.566 2.29219M41.3434 35.1254C36.3387 35.1254 32.2408 37.6978 30.6836 41.6687C30.2835 42.6901 29.6353 43.5956 28.7975 44.3037C27.9598 45.0117 26.9589 45.5 25.8851 45.7243C26.9983 45.843 28.0631 46.2424 28.9796 46.8852C29.8961 47.528 30.6344 48.393 31.1251 49.3992C33.0128 53.2776 36.9547 55.4059 41.3407 55.4059C46.3666 55.0093 50.705 51.0092 50.705 45.3542C50.705 39.7018 46.742 35.1227 41.3407 35.1227" fill="url(#paint4_radial_2983_4139)"/>
</g>
<path d="M32.5658 2.28955C33.0463 1.67363 33.6434 1.1584 34.3231 0.77325C35.0027 0.388104 35.7515 0.140594 36.5268 0.0448491C37.3021 -0.0508953 38.0886 0.00700162 38.8416 0.215235C39.5945 0.423468 40.299 0.77796 40.9149 1.25847C46.9163 5.93797 52.7353 12.9096 56.8913 20.6189H48.5158C44.6559 17.3856 40.1931 14.9929 35.7992 13.2718C35.0404 12.4523 34.2869 11.6856 33.5519 10.9902C30.961 8.97039 30.546 4.8831 32.5658 2.29219" fill="url(#paint5_linear_2983_4139)"/>
<path d="M32.5658 2.28955C33.0463 1.67363 33.6434 1.1584 34.3231 0.77325C35.0027 0.388104 35.7515 0.140594 36.5268 0.0448491C37.3021 -0.0508953 38.0886 0.00700162 38.8416 0.215235C39.5945 0.423468 40.299 0.77796 40.9149 1.25847C46.9163 5.93797 52.7353 12.9096 56.8913 20.6189H48.5158C44.6559 17.3856 40.1931 14.9929 35.7992 13.2718C35.0404 12.4523 34.2869 11.6856 33.5519 10.9902C30.961 8.97039 30.546 4.8831 32.5658 2.29219" fill="url(#paint6_radial_2983_4139)"/>
<path d="M32.5658 2.28955C33.0463 1.67363 33.6434 1.1584 34.3231 0.77325C35.0027 0.388104 35.7515 0.140594 36.5268 0.0448491C37.3021 -0.0508953 38.0886 0.00700162 38.8416 0.215235C39.5945 0.423468 40.299 0.77796 40.9149 1.25847C46.9163 5.93797 52.7353 12.9096 56.8913 20.6189H48.5158C44.6559 17.3856 40.1931 14.9929 35.7992 13.2718C35.0404 12.4523 34.2869 11.6856 33.5519 10.9902C30.961 8.97039 30.546 4.8831 32.5658 2.29219" fill="url(#paint7_linear_2983_4139)"/>
<path d="M32.5658 2.28955C33.0463 1.67363 33.6434 1.1584 34.3231 0.77325C35.0027 0.388104 35.7515 0.140594 36.5268 0.0448491C37.3021 -0.0508953 38.0886 0.00700162 38.8416 0.215235C39.5945 0.423468 40.299 0.77796 40.9149 1.25847C46.9163 5.93797 52.7353 12.9096 56.8913 20.6189H48.5158C44.6559 17.3856 40.1931 14.9929 35.7992 13.2718C35.0404 12.4523 34.2869 11.6856 33.5519 10.9902C30.961 8.97039 30.546 4.8831 32.5658 2.29219" fill="url(#paint8_radial_2983_4139)"/>
<path d="M32.5658 2.28955C33.0463 1.67363 33.6434 1.1584 34.3231 0.77325C35.0027 0.388104 35.7515 0.140594 36.5268 0.0448491C37.3021 -0.0508953 38.0886 0.00700162 38.8416 0.215235C39.5945 0.423468 40.299 0.77796 40.9149 1.25847C46.9163 5.93797 52.7353 12.9096 56.8913 20.6189H48.5158C44.6559 17.3856 40.1931 14.9929 35.7992 13.2718C35.0404 12.4523 34.2869 11.6856 33.5519 10.9902C30.961 8.97039 30.546 4.8831 32.5658 2.29219" fill="url(#paint9_linear_2983_4139)"/>
<path d="M66.428 27.5587C65.352 18.7971 62.5786 10.2815 59.0412 4.27483C58.3511 3.10015 57.2786 2.19797 56.0031 1.71912C54.7276 1.24027 53.3264 1.21377 52.0337 1.64405C50.7411 2.07432 49.6352 2.9353 48.9012 4.08304C48.1671 5.23078 47.8493 6.59573 48.0008 7.94969C52.9949 13.5334 57.3704 20.4337 60.0829 27.5587H66.428Z" fill="url(#paint10_linear_2983_4139)"/>
<path d="M66.428 27.5587C65.352 18.7971 62.5786 10.2815 59.0412 4.27483C58.3511 3.10015 57.2786 2.19797 56.0031 1.71912C54.7276 1.24027 53.3264 1.21377 52.0337 1.64405C50.7411 2.07432 49.6352 2.9353 48.9012 4.08304C48.1671 5.23078 47.8493 6.59573 48.0008 7.94969C52.9949 13.5334 57.3704 20.4337 60.0829 27.5587H66.428Z" fill="url(#paint11_linear_2983_4139)"/>
<path d="M66.428 27.5587C65.352 18.7971 62.5786 10.2815 59.0412 4.27483C58.3511 3.10015 57.2786 2.19797 56.0031 1.71912C54.7276 1.24027 53.3264 1.21377 52.0337 1.64405C50.7411 2.07432 49.6352 2.9353 48.9012 4.08304C48.1671 5.23078 47.8493 6.59573 48.0008 7.94969C52.9949 13.5334 57.3704 20.4337 60.0829 27.5587H66.428Z" fill="url(#paint12_radial_2983_4139)"/>
<path d="M66.428 27.5587C65.352 18.7971 62.5786 10.2815 59.0412 4.27483C58.3511 3.10015 57.2786 2.19797 56.0031 1.71912C54.7276 1.24027 53.3264 1.21377 52.0337 1.64405C50.7411 2.07432 49.6352 2.9353 48.9012 4.08304C48.1671 5.23078 47.8493 6.59573 48.0008 7.94969C52.9949 13.5334 57.3704 20.4337 60.0829 27.5587H66.428Z" fill="url(#paint13_radial_2983_4139)"/>
<path d="M19.0462 9.47004C17.312 9.40896 15.6234 10.0323 14.3448 11.2056C13.0663 12.3789 12.3004 14.0079 12.2126 15.7409C12.1248 17.474 12.722 19.1721 13.8754 20.4686C15.0289 21.7651 16.6459 22.5559 18.3774 22.6705C20.9947 22.8027 24.7595 23.461 28.6776 24.7538C32.6094 22.3887 37.1126 21.1427 41.7009 21.1503C44.9183 21.1503 47.9957 21.7504 50.8272 22.845C50.5982 22.5399 50.3435 22.2551 50.0658 21.9937C40.5085 12.9995 26.3061 9.83753 19.0462 9.47004Z" fill="url(#paint14_linear_2983_4139)"/>
<path d="M19.0462 9.47004C17.312 9.40896 15.6234 10.0323 14.3448 11.2056C13.0663 12.3789 12.3004 14.0079 12.2126 15.7409C12.1248 17.474 12.722 19.1721 13.8754 20.4686C15.0289 21.7651 16.6459 22.5559 18.3774 22.6705C20.9947 22.8027 24.7595 23.461 28.6776 24.7538C32.6094 22.3887 37.1126 21.1427 41.7009 21.1503C44.9183 21.1503 47.9957 21.7504 50.8272 22.845C50.5982 22.5399 50.3435 22.2551 50.0658 21.9937C40.5085 12.9995 26.3061 9.83753 19.0462 9.47004Z" fill="url(#paint15_radial_2983_4139)"/>
<path d="M19.0462 9.47004C17.312 9.40896 15.6234 10.0323 14.3448 11.2056C13.0663 12.3789 12.3004 14.0079 12.2126 15.7409C12.1248 17.474 12.722 19.1721 13.8754 20.4686C15.0289 21.7651 16.6459 22.5559 18.3774 22.6705C20.9947 22.8027 24.7595 23.461 28.6776 24.7538C32.6094 22.3887 37.1126 21.1427 41.7009 21.1503C44.9183 21.1503 47.9957 21.7504 50.8272 22.845C50.5982 22.5399 50.3435 22.2551 50.0658 21.9937C40.5085 12.9995 26.3061 9.83753 19.0462 9.47004Z" fill="url(#paint16_radial_2983_4139)"/>
<path d="M19.0462 9.47004C17.312 9.40896 15.6234 10.0323 14.3448 11.2056C13.0663 12.3789 12.3004 14.0079 12.2126 15.7409C12.1248 17.474 12.722 19.1721 13.8754 20.4686C15.0289 21.7651 16.6459 22.5559 18.3774 22.6705C20.9947 22.8027 24.7595 23.461 28.6776 24.7538C32.6094 22.3887 37.1126 21.1427 41.7009 21.1503C44.9183 21.1503 47.9957 21.7504 50.8272 22.845C50.5982 22.5399 50.3435 22.2551 50.0658 21.9937C40.5085 12.9995 26.3061 9.83753 19.0462 9.47004Z" fill="url(#paint17_radial_2983_4139)"/>
<path d="M19.0462 9.47004C17.312 9.40896 15.6234 10.0323 14.3448 11.2056C13.0663 12.3789 12.3004 14.0079 12.2126 15.7409C12.1248 17.474 12.722 19.1721 13.8754 20.4686C15.0289 21.7651 16.6459 22.5559 18.3774 22.6705C20.9947 22.8027 24.7595 23.461 28.6776 24.7538C32.6094 22.3887 37.1126 21.1427 41.7009 21.1503C44.9183 21.1503 47.9957 21.7504 50.8272 22.845C50.5982 22.5399 50.3435 22.2551 50.0658 21.9937C40.5085 12.9995 26.3061 9.83753 19.0462 9.47004Z" fill="url(#paint18_radial_2983_4139)"/>
<g filter="url(#filter1_f_2983_4139)">
<path d="M55.5615 5.15527C57.2139 7.33111 61.2615 16.7351 62.5015 23.7437" stroke="url(#paint19_linear_2983_4139)" stroke-width="1.25" stroke-linecap="round"/>
</g>
<g filter="url(#filter2_f_2983_4139)">
<path d="M38.4199 4.3833C41.2276 6.15993 47.9613 12.2724 53.3309 20.3703" stroke="url(#paint20_linear_2983_4139)" stroke-width="1.25" stroke-linecap="round"/>
</g>
<g filter="url(#filter3_f_2983_4139)">
<path d="M20.7773 13.4226C26.3108 14.0836 39.5773 18.118 43.5959 20.7353" stroke="url(#paint21_linear_2983_4139)" stroke-width="1.25" stroke-linecap="round"/>
</g>
<g filter="url(#filter4_f_2983_4139)">
<path d="M25.2373 40.0877C28.3781 31.0829 38.7048 26.7048 44.9837 27.6962" stroke="url(#paint22_linear_2983_4139)" stroke-width="1.5" stroke-linecap="round"/>
</g>
<g filter="url(#filter5_f_2983_4139)">
<path d="M26.332 50.3246C27.765 53.9677 33.2825 60.9817 43.8894 59.903" stroke="url(#paint23_linear_2983_4139)" stroke-width="1.25" stroke-linecap="round"/>
</g>
<g filter="url(#filter6_f_2983_4139)">
<path d="M65.2402 47.2314C61.7584 23.8418 46.8051 23.0407 43.1699 22.1048C50.7708 17.2297 62.0862 21.1742 63.3288 25.4095C65.7241 33.5894 65.9567 43.1546 65.2402 47.2314Z" fill="url(#paint24_linear_2983_4139)"/>
</g>
<path fill-rule="evenodd" clip-rule="evenodd" d="M32.566 2.28955C33.0465 1.67363 33.6436 1.1584 34.3232 0.77325C35.0029 0.388104 35.7517 0.140594 36.527 0.0448491C37.3023 -0.0508953 38.0888 0.00700162 38.8417 0.215235C39.5946 0.423468 40.2992 0.77796 40.9151 1.25847C43.4703 3.27376 45.8414 5.51216 48.0004 7.94725C47.8489 6.59329 48.1667 5.22834 48.9008 4.0806C49.6349 2.93286 50.7407 2.07188 52.0334 1.64161C53.3261 1.21133 54.7273 1.23783 56.0028 1.71668C57.2783 2.19553 58.3507 3.09771 59.0409 4.27239C62.9801 10.9612 65.9676 20.7511 66.7264 30.5331L66.7554 30.5305L66.7951 31.2654C66.885 32.8438 67.07 36.0666 66.9722 42.134C66.8744 48.2491 65.1903 53.0873 62.7263 57.1455C58.4619 64.4317 50.3798 69.2408 41.3407 69.2408C31.3313 69.2408 23.0827 63.0755 19.2387 55.1891C18.7982 54.2853 18.5697 53.293 18.5706 52.2876C18.5715 51.2822 18.8017 50.2903 19.2438 49.3873C19.6858 48.4843 20.3281 47.6941 21.1216 47.0767C21.9151 46.4594 22.839 46.0312 23.823 45.8248C22.8128 45.7142 21.8416 45.3725 20.9846 44.8262C20.1277 44.2799 19.408 43.5437 18.8814 42.6745C18.3548 41.8053 18.0354 40.8266 17.9478 39.8141C17.8603 38.8016 18.0071 37.7825 18.3768 36.8359C20.3909 31.7571 24.0701 27.513 28.8118 24.7987C24.8435 23.4768 21.0232 22.8053 18.3768 22.6705C17.5008 22.6396 16.6397 22.4348 15.8436 22.068C15.0475 21.7012 14.3323 21.1797 13.7396 20.5339C13.147 19.8881 12.6887 19.1308 12.3915 18.3062C12.0943 17.4816 11.9641 16.6061 12.0085 15.7306C12.0528 14.8552 12.2709 13.9974 12.6499 13.207C13.029 12.4167 13.5614 11.7096 14.2163 11.127C14.8712 10.5444 15.6354 10.0978 16.4645 9.81338C17.2936 9.52892 18.171 9.41222 19.0457 9.47007C23.125 9.67628 29.3934 10.7655 35.7967 13.2718C35.0406 12.4523 34.2897 11.6856 33.5495 10.9902C30.9586 8.97039 30.5461 4.8831 32.566 2.29219M41.3434 35.1254C36.3387 35.1254 32.2408 37.6978 30.6836 41.6687C30.2835 42.6901 29.6353 43.5956 28.7975 44.3037C27.9598 45.0117 26.9589 45.5 25.8851 45.7243C26.9983 45.843 28.0631 46.2424 28.9796 46.8852C29.8961 47.528 30.6344 48.393 31.1251 49.3992C33.0128 53.2776 36.9547 55.4059 41.3407 55.4059C46.3666 55.0093 50.705 51.0092 50.705 45.3542C50.705 39.7018 46.742 35.1227 41.3407 35.1227" fill="url(#paint25_radial_2983_4139)"/>
<g filter="url(#filter7_f_2983_4139)">
<path d="M50.1787 27.3447C54.1127 28.6957 61.9303 34.2873 61.7321 45.8354" stroke="url(#paint26_radial_2983_4139)" stroke-width="2" stroke-linecap="round"/>
</g>
<path fill-rule="evenodd" clip-rule="evenodd" d="M59.7568 61.1931C57.4194 63.7422 54.5764 65.7762 51.4092 67.1655C48.2419 68.5548 44.8199 69.2687 41.3614 69.2619C31.352 69.2619 23.1034 63.0754 19.2593 55.1652C18.8192 54.2594 18.5909 53.2653 18.5918 52.2582C18.5926 51.2511 18.8226 50.2574 19.2643 49.3523C19.706 48.4473 20.3479 47.6546 21.1413 47.0342C21.9346 46.4139 22.8587 45.9822 23.8436 45.7718C22.8315 45.6594 21.8589 45.3155 21.001 44.7669C20.1431 44.2182 19.423 43.4794 18.8964 42.6078C18.3698 41.7362 18.051 40.755 17.9644 39.7404C17.8779 38.7257 18.0261 37.7047 18.3974 36.7565C20.4082 31.6663 24.0873 27.4094 28.8325 24.6824L28.769 24.6612C32.5681 22.4933 36.9119 21.2349 41.3931 21.2349C54.8209 21.2349 65.7053 32.0427 65.7053 45.3726C65.7053 51.4269 63.4608 56.9577 59.7568 61.1931ZM30.7043 41.6026C32.2641 37.6184 36.3593 35.0381 41.3614 35.0381C46.7626 35.0381 50.7256 39.6277 50.7256 45.2986C50.7256 50.9722 46.3872 54.9828 41.3614 55.3794C36.9753 55.3794 33.0334 53.2485 31.1458 49.3595C30.6573 48.3502 29.92 47.4818 29.0033 46.8361C28.0866 46.1905 27.0206 45.7887 25.9058 45.6687C26.9804 45.4429 27.9819 44.9529 28.8197 44.243C29.6575 43.5331 30.3052 42.6256 30.7043 41.6026Z" fill="url(#paint27_radial_2983_4139)"/>
<path fill-rule="evenodd" clip-rule="evenodd" d="M59.7568 61.1931C57.4194 63.7422 54.5764 65.7762 51.4092 67.1655C48.2419 68.5548 44.8199 69.2687 41.3614 69.2619C31.352 69.2619 23.1034 63.0754 19.2593 55.1652C18.8192 54.2594 18.5909 53.2653 18.5918 52.2582C18.5926 51.2511 18.8226 50.2574 19.2643 49.3523C19.706 48.4473 20.3479 47.6546 21.1413 47.0342C21.9346 46.4139 22.8587 45.9822 23.8436 45.7718C22.8315 45.6594 21.8589 45.3155 21.001 44.7669C20.1431 44.2182 19.423 43.4794 18.8964 42.6078C18.3698 41.7362 18.051 40.755 17.9644 39.7404C17.8779 38.7257 18.0261 37.7047 18.3974 36.7565C20.4082 31.6663 24.0873 27.4094 28.8325 24.6824L28.769 24.6612C32.5681 22.4933 36.9119 21.2349 41.3931 21.2349C54.8209 21.2349 65.7053 32.0427 65.7053 45.3726C65.7053 51.4269 63.4608 56.9577 59.7568 61.1931ZM30.7043 41.6026C32.2641 37.6184 36.3593 35.0381 41.3614 35.0381C46.7626 35.0381 50.7256 39.6277 50.7256 45.2986C50.7256 50.9722 46.3872 54.9828 41.3614 55.3794C36.9753 55.3794 33.0334 53.2485 31.1458 49.3595C30.6573 48.3502 29.92 47.4818 29.0033 46.8361C28.0866 46.1905 27.0206 45.7887 25.9058 45.6687C26.9804 45.4429 27.9819 44.9529 28.8197 44.243C29.6575 43.5331 30.3052 42.6256 30.7043 41.6026Z" fill="url(#paint28_radial_2983_4139)"/>
<defs>
<filter id="filter0_i_2983_4139" x="12" y="-0.6" width="55.6" height="69.8408" filterUnits="userSpaceOnUse" color-interpolation-filters="sRGB">
<feFlood flood-opacity="0" result="BackgroundImageFix"/>
<feBlend mode="normal" in="SourceGraphic" in2="BackgroundImageFix" result="shape"/>
<feColorMatrix in="SourceAlpha" type="matrix" values="0 0 0 0 0 0 0 0 0 0 0 0 0 0 0 0 0 0 127 0" result="hardAlpha"/>
<feOffset dx="0.6" dy="-0.6"/>
<feGaussianBlur stdDeviation="1"/>
<feComposite in2="hardAlpha" operator="arithmetic" k2="-1" k3="1"/>
<feColorMatrix type="matrix" values="0 0 0 0 0.733333 0 0 0 0 0.490196 0 0 0 0 0.596078 0 0 0 1 0"/>
<feBlend mode="normal" in2="shape" result="effect1_innerShadow_2983_4139"/>
</filter>
<filter id="filter1_f_2983_4139" x="53.6865" y="3.28027" width="10.6904" height="22.3386" filterUnits="userSpaceOnUse" color-interpolation-filters="sRGB">
<feFlood flood-opacity="0" result="BackgroundImageFix"/>
<feBlend mode="normal" in="SourceGraphic" in2="BackgroundImageFix" result="shape"/>
<feGaussianBlur stdDeviation="0.625" result="effect1_foregroundBlur_2983_4139"/>
</filter>
<filter id="filter2_f_2983_4139" x="36.5449" y="2.50818" width="18.6611" height="19.7372" filterUnits="userSpaceOnUse" color-interpolation-filters="sRGB">
<feFlood flood-opacity="0" result="BackgroundImageFix"/>
<feBlend mode="normal" in="SourceGraphic" in2="BackgroundImageFix" result="shape"/>
<feGaussianBlur stdDeviation="0.625" result="effect1_foregroundBlur_2983_4139"/>
</filter>
<filter id="filter3_f_2983_4139" x="18.1523" y="10.7975" width="28.0684" height="12.5629" filterUnits="userSpaceOnUse" color-interpolation-filters="sRGB">
<feFlood flood-opacity="0" result="BackgroundImageFix"/>
<feBlend mode="normal" in="SourceGraphic" in2="BackgroundImageFix" result="shape"/>
<feGaussianBlur stdDeviation="1" result="effect1_foregroundBlur_2983_4139"/>
</filter>
<filter id="filter4_f_2983_4139" x="23.2373" y="25.5583" width="23.7461" height="16.5295" filterUnits="userSpaceOnUse" color-interpolation-filters="sRGB">
<feFlood flood-opacity="0" result="BackgroundImageFix"/>
<feBlend mode="normal" in="SourceGraphic" in2="BackgroundImageFix" result="shape"/>
<feGaussianBlur stdDeviation="0.625" result="effect1_foregroundBlur_2983_4139"/>
</filter>
<filter id="filter5_f_2983_4139" x="24.457" y="48.4495" width="21.3076" height="13.4404" filterUnits="userSpaceOnUse" color-interpolation-filters="sRGB">
<feFlood flood-opacity="0" result="BackgroundImageFix"/>
<feBlend mode="normal" in="SourceGraphic" in2="BackgroundImageFix" result="shape"/>
<feGaussianBlur stdDeviation="0.625" result="effect1_foregroundBlur_2983_4139"/>
</filter>
<filter id="filter6_f_2983_4139" x="42.1699" y="18.8533" width="24.4268" height="29.3781" filterUnits="userSpaceOnUse" color-interpolation-filters="sRGB">
<feFlood flood-opacity="0" result="BackgroundImageFix"/>
<feBlend mode="normal" in="SourceGraphic" in2="BackgroundImageFix" result="shape"/>
<feGaussianBlur stdDeviation="0.5" result="effect1_foregroundBlur_2983_4139"/>
</filter>
<filter id="filter7_f_2983_4139" x="47.9287" y="25.0945" width="16.0566" height="22.9908" filterUnits="userSpaceOnUse" color-interpolation-filters="sRGB">
<feFlood flood-opacity="0" result="BackgroundImageFix"/>
<feBlend mode="normal" in="SourceGraphic" in2="BackgroundImageFix" result="shape"/>
<feGaussianBlur stdDeviation="0.625" result="effect1_foregroundBlur_2983_4139"/>
</filter>
<radialGradient id="paint0_radial_2983_4139" cx="0" cy="0" r="1" gradientUnits="userSpaceOnUse" gradientTransform="translate(42.6071 44.1222) rotate(-37.5041) scale(17.9127 17.0765)">
<stop stop-color="#BB7D98"/>
<stop offset="1" stop-color="#BB7D98" stop-opacity="0"/>
</radialGradient>
<radialGradient id="paint1_radial_2983_4139" cx="0" cy="0" r="1" gradientUnits="userSpaceOnUse" gradientTransform="translate(42.0308 28.3414) rotate(90.5787) scale(49.0777 67.6902)">
<stop offset="0.652" stop-color="#BB7D98" stop-opacity="0"/>
<stop offset="1" stop-color="#BB7D98"/>
</radialGradient>
<radialGradient id="paint2_radial_2983_4139" cx="0" cy="0" r="1" gradientUnits="userSpaceOnUse" gradientTransform="translate(41.6895 45.379) rotate(-40.721) scale(14.2717 11.7344)">
<stop stop-color="#E2AF98"/>
<stop offset="1" stop-color="#E2AF98" stop-opacity="0"/>
</radialGradient>
<radialGradient id="paint3_radial_2983_4139" cx="0" cy="0" r="1" gradientUnits="userSpaceOnUse" gradientTransform="translate(24.7933 45.5181) rotate(90) scale(5.30737 5.07324)">
<stop stop-color="#E7A186"/>
<stop offset="1" stop-color="#E7A186" stop-opacity="0"/>
</radialGradient>
<radialGradient id="paint4_radial_2983_4139" cx="0" cy="0" r="1" gradientUnits="userSpaceOnUse" gradientTransform="translate(25.0761 45.756) rotate(90.9091) scale(1.30141 3.37482)">
<stop stop-color="#D18D6F"/>
<stop offset="1" stop-color="#D18D6F" stop-opacity="0"/>
</radialGradient>
<linearGradient id="paint5_linear_2983_4139" x1="37.6921" y1="14.6281" x2="41.1872" y2="11.1171" gradientUnits="userSpaceOnUse">
<stop stop-color="#EAA17F"/>
<stop offset="1" stop-color="#EAA17F" stop-opacity="0"/>
</linearGradient>
<radialGradient id="paint6_radial_2983_4139" cx="0" cy="0" r="1" gradientUnits="userSpaceOnUse" gradientTransform="translate(53.5216 15.6985) rotate(-154.517) scale(26.2044 20.1459)">
<stop offset="0.8" stop-color="#D9AA8E" stop-opacity="0"/>
<stop offset="1" stop-color="#D9AA8E"/>
</radialGradient>
<linearGradient id="paint7_linear_2983_4139" x1="55.149" y1="10.7867" x2="48.7035" y2="17.3961" gradientUnits="userSpaceOnUse">
<stop stop-color="#FADBC4"/>
<stop offset="1" stop-color="#FADBC4" stop-opacity="0"/>
</linearGradient>
<radialGradient id="paint8_radial_2983_4139" cx="0" cy="0" r="1" gradientUnits="userSpaceOnUse" gradientTransform="translate(44.0901 21.4834) rotate(-65.449) scale(9.3555 16.9274)">
<stop stop-color="#FFD6B4"/>
<stop offset="0.572" stop-color="#FFD6B4" stop-opacity="0"/>
</radialGradient>
<linearGradient id="paint9_linear_2983_4139" x1="56.3044" y1="21.3618" x2="52.8357" y2="16.7352" gradientUnits="userSpaceOnUse">
<stop stop-color="#FFC4AA"/>
<stop offset="1" stop-color="#FFC4AA" stop-opacity="0"/>
</linearGradient>
<linearGradient id="paint10_linear_2983_4139" x1="51.0993" y1="17.9749" x2="58.3115" y2="17.3642" gradientUnits="userSpaceOnUse">
<stop stop-color="#F3AA84"/>
<stop offset="1" stop-color="#F3AA84" stop-opacity="0"/>
</linearGradient>
<linearGradient id="paint11_linear_2983_4139" x1="65.0638" y1="24.9149" x2="63.0598" y2="22.4297" gradientUnits="userSpaceOnUse">
<stop stop-color="#FFC4AA"/>
<stop offset="1" stop-color="#FFC4AA" stop-opacity="0"/>
</linearGradient>
<radialGradient id="paint12_radial_2983_4139" cx="0" cy="0" r="1" gradientUnits="userSpaceOnUse" gradientTransform="translate(56.3234 21.5678) rotate(-32.0054) scale(3.8971 7.12078)">
<stop stop-color="#FFDDBC"/>
<stop offset="1" stop-color="#FFDDBC" stop-opacity="0"/>
</radialGradient>
<radialGradient id="paint13_radial_2983_4139" cx="0" cy="0" r="1" gradientUnits="userSpaceOnUse" gradientTransform="translate(62.6632 14.9504) rotate(-140.949) scale(17.7738 15.2538)">
<stop offset="0.83" stop-color="#DBAB90" stop-opacity="0"/>
<stop offset="1" stop-color="#DBAB90"/>
</radialGradient>
<linearGradient id="paint14_linear_2983_4139" x1="20.0535" y1="26.1946" x2="21.8037" y2="18.1866" gradientUnits="userSpaceOnUse">
<stop stop-color="#C68588"/>
<stop offset="1" stop-color="#C68588" stop-opacity="0"/>
</linearGradient>
<radialGradient id="paint15_radial_2983_4139" cx="0" cy="0" r="1" gradientUnits="userSpaceOnUse" gradientTransform="translate(31.7496 24.7538) rotate(-88.5639) scale(4.48223 13.0342)">
<stop stop-color="#DA947B"/>
<stop offset="1" stop-color="#DA947B" stop-opacity="0"/>
</radialGradient>
<radialGradient id="paint16_radial_2983_4139" cx="0" cy="0" r="1" gradientUnits="userSpaceOnUse" gradientTransform="translate(45.7326 21.1053) rotate(-167.844) scale(34.4007 26.7919)">
<stop offset="0.826" stop-color="#DDAB8F" stop-opacity="0"/>
<stop offset="1" stop-color="#DDAB8F"/>
</radialGradient>
<radialGradient id="paint17_radial_2983_4139" cx="0" cy="0" r="1" gradientUnits="userSpaceOnUse" gradientTransform="translate(44.4921 17.1075) rotate(119.455) scale(4.03236 8.65745)">
<stop stop-color="#FFD9B8"/>
<stop offset="1" stop-color="#FFD9B8" stop-opacity="0"/>
</radialGradient>
<radialGradient id="paint18_radial_2983_4139" cx="0" cy="0" r="1" gradientUnits="userSpaceOnUse" gradientTransform="translate(28.9254 29.7069) rotate(-76.809) scale(18.4279 64.9943)">
<stop offset="0.822" stop-color="#FFD9BA" stop-opacity="0"/>
<stop offset="1" stop-color="#FFD9BA"/>
</radialGradient>
<linearGradient id="paint19_linear_2983_4139" x1="57.3884" y1="6.26038" x2="70.3086" y2="12.9306" gradientUnits="userSpaceOnUse">
<stop stop-color="#FFE5C7"/>
<stop offset="1" stop-color="#FFE5C7" stop-opacity="0"/>
</linearGradient>
<linearGradient id="paint20_linear_2983_4139" x1="42.3433" y1="5.33242" x2="55.5464" y2="22.361" gradientUnits="userSpaceOnUse">
<stop stop-color="#FFE5C7"/>
<stop offset="1" stop-color="#FFE5C7" stop-opacity="0"/>
</linearGradient>
<linearGradient id="paint21_linear_2983_4139" x1="22.665" y1="12.7934" x2="23.1753" y2="26.1207" gradientUnits="userSpaceOnUse">
<stop stop-color="#FFE5C7"/>
<stop offset="1" stop-color="#FFE5C7" stop-opacity="0"/>
</linearGradient>
<linearGradient id="paint22_linear_2983_4139" x1="25.2373" y1="37.9885" x2="44.9837" y2="23.3789" gradientUnits="userSpaceOnUse">
<stop stop-color="#F9C3B4"/>
<stop offset="1" stop-color="#F9C3B4" stop-opacity="0"/>
</linearGradient>
<linearGradient id="paint23_linear_2983_4139" x1="27.5059" y1="52.2122" x2="47.0963" y2="53.4443" gradientUnits="userSpaceOnUse">
<stop stop-color="#FFD9C3"/>
<stop offset="1" stop-color="#FFD9C3" stop-opacity="0"/>
</linearGradient>
<linearGradient id="paint24_linear_2983_4139" x1="68.6269" y1="46.158" x2="44.9968" y2="9.52303" gradientUnits="userSpaceOnUse">
<stop stop-color="#FFDFC1"/>
<stop offset="1" stop-color="#FFDFC1" stop-opacity="0"/>
</linearGradient>
<radialGradient id="paint25_radial_2983_4139" cx="0" cy="0" r="1" gradientUnits="userSpaceOnUse" gradientTransform="translate(20.4469 40.6112) rotate(-8.10199) scale(48.8656 69.7444)">
<stop offset="0.872" stop-color="#FFE1C2" stop-opacity="0"/>
<stop offset="1" stop-color="#FFE1C2"/>
</radialGradient>
<radialGradient id="paint26_radial_2983_4139" cx="0" cy="0" r="1" gradientUnits="userSpaceOnUse" gradientTransform="translate(62.319 31.1597) rotate(150.191) scale(12.2387 19.3166)">
<stop stop-color="#FFF0DE"/>
<stop offset="1" stop-color="#FFF0DE" stop-opacity="0"/>
</radialGradient>
<radialGradient id="paint27_radial_2983_4139" cx="0" cy="0" r="1" gradientUnits="userSpaceOnUse" gradientTransform="translate(64.5606 66.745) rotate(-136.156) scale(58.1414 43.4498)">
<stop offset="0.872" stop-color="#DBAF9A" stop-opacity="0"/>
<stop offset="1" stop-color="#DBAF9A"/>
</radialGradient>
<radialGradient id="paint28_radial_2983_4139" cx="0" cy="0" r="1" gradientUnits="userSpaceOnUse" gradientTransform="translate(41.8214 46.3905) rotate(34.432) scale(14.294 14.3738)">
<stop stop-color="#E5A78B"/>
<stop offset="1" stop-color="#E5A78B" stop-opacity="0"/>
</radialGradient>
</defs>
</svg>
