<svg width="16" height="16" viewBox="0 0 22 22" fill="currentFill" xmlns="http://www.w3.org/2000/svg">
<path fill-rule="evenodd" clip-rule="evenodd" d="M11.0007 0C10.0476 0 9.39382 0.603417 8.90325 1.24398C8.42413 1.86959 7.92038 2.77301 7.32132 3.84738L6.95235 4.50884C6.55001 5.23082 6.475 5.32503 6.40085 5.38164C6.33217 5.43349 6.23774 5.47595 5.45619 5.65261L4.74597 5.81338C3.58204 6.07639 2.59494 6.29945 1.8698 6.5853C1.11048 6.88463 0.38326 7.35024 0.102882 8.25071C-0.173173 9.14032 0.146645 9.94397 0.584491 10.6396C1.00731 11.3113 1.67739 12.0944 2.474 13.0254L2.95503 13.5883C3.48585 14.2084 3.54894 14.3113 3.57977 14.4117L3.58158 14.4175C3.61452 14.5224 3.62047 14.6534 3.54034 15.4815L3.46633 16.2403C3.34642 17.48 3.24602 18.5181 3.28167 19.3153C3.31819 20.1321 3.50573 20.9912 4.25219 21.5576C5.01436 22.1355 5.89042 22.0545 6.66549 21.8323C7.41133 21.6185 8.33296 21.1942 9.42017 20.6937L10.0919 20.3849C10.8278 20.0451 10.9244 20.025 11.0007 20.025C11.077 20.025 11.1736 20.0451 11.9094 20.3849L12.5085 20.6598L12.5866 20.6958C13.6711 21.1953 14.5912 21.619 15.3361 21.8325C16.1116 22.0549 16.9876 22.1356 17.75 21.5567C18.4964 20.9906 18.6834 20.1312 18.7198 19.315C18.7553 18.518 18.6549 17.48 18.535 16.2403L18.461 15.4805C18.3811 14.6555 18.3863 14.5213 18.4197 14.4136C18.4514 14.3117 18.5167 14.2071 19.0463 13.5873L19.529 13.0234C20.3249 12.0928 20.9944 11.31 21.4168 10.6388C21.8545 9.94355 22.175 9.14082 21.8987 8.25135C21.6183 7.35089 20.8911 6.88489 20.132 6.58566C19.4091 6.3007 18.4253 6.07801 17.2653 5.81543L17.1825 5.79669L16.5465 5.65269C15.7598 5.47511 15.6679 5.43293 15.6011 5.38211C15.5268 5.32555 15.4527 5.23322 15.0492 4.50921L14.68 3.84738C14.081 2.77301 13.5772 1.86959 13.0981 1.24398C12.6075 0.603417 11.9537 0 11.0007 0ZM11.3532 7.5233L11.8158 2.89809C12.127 3.37842 12.491 4.0284 12.9743 4.89505L13.3021 5.48279L13.3681 5.60162C13.6596 6.12728 13.9385 6.63027 14.3902 6.97389C14.8489 7.3228 15.4075 7.44752 15.9768 7.57462L16.1055 7.60346L16.7408 7.74731C18.0049 8.03352 18.8359 8.22455 19.3986 8.44634C19.931 8.65619 19.9746 8.79877 19.9881 8.84265L19.9887 8.84466C20.0044 8.89518 20.0518 9.05295 19.7242 9.57342C19.39 10.1044 18.8207 10.7744 17.961 11.7797L17.4395 12.3888C17.0494 12.8434 16.6795 13.2744 16.5098 13.82C16.3413 14.3632 16.3972 14.9318 16.4574 15.5415L16.5363 16.3502C16.6659 17.6909 16.7502 18.5871 16.7218 19.226C16.694 19.8497 16.5665 19.9445 16.5428 19.9622L16.5413 19.9633L16.5401 19.9643C16.5314 19.9729 16.4362 20.0673 15.8872 19.91C15.3072 19.7437 14.5269 19.3874 13.3439 18.8427L12.7479 18.5691L12.6309 18.5149C12.3894 18.4027 12.1497 18.2914 11.906 18.2032L11.4373 14.4428C11.1511 12.1467 11.1229 9.82571 11.3532 7.5233Z" fill="currentFill"/>
</svg>
