<svg width="20" height="20" viewBox="0 0 20 20" fill="none" xmlns="http://www.w3.org/2000/svg">
<path d="M16.0478 11.8022C15.2985 12.2577 14.4379 12.4972 13.5611 12.4944C12.8265 12.4886 12.1002 12.3383 11.4236 12.0522C10.9021 12.7884 10.623 13.6688 10.6252 14.571V16.8749C10.6253 16.9606 10.6079 17.0454 10.5739 17.124C10.54 17.2027 10.4902 17.2735 10.4277 17.3321C10.3652 17.3907 10.2913 17.4359 10.2107 17.4647C10.13 17.4936 10.0442 17.5056 9.95875 17.4999C9.7981 17.4859 9.64867 17.4117 9.54044 17.2922C9.43221 17.1726 9.37316 17.0166 9.37515 16.8554V15.8835L6.35796 12.8663C5.90945 13.0336 5.4351 13.1211 4.9564 13.1249C4.29739 13.1265 3.65073 12.9462 3.08765 12.6038C1.38531 11.5694 0.468901 9.18895 0.646245 6.23348C0.655174 6.08058 0.719938 5.93628 0.82824 5.82797C0.936542 5.71967 1.08084 5.65491 1.23374 5.64598C4.18921 5.47176 6.56968 6.38504 7.60093 8.08739C8.0061 8.75464 8.18298 9.53567 8.10484 10.3124C8.09998 10.3726 8.07779 10.43 8.04096 10.4779C8.00413 10.5257 7.95423 10.5619 7.89729 10.5819C7.84035 10.602 7.77882 10.6052 7.72013 10.591C7.66143 10.5769 7.60809 10.546 7.56656 10.5022L6.06656 8.93192C5.94839 8.81965 5.79105 8.75799 5.62807 8.76008C5.4651 8.76217 5.30938 8.82784 5.19413 8.94309C5.07888 9.05834 5.01321 9.21405 5.01113 9.37703C5.00904 9.54 5.0707 9.69735 5.18296 9.81551L9.39234 14.1319C9.39703 14.071 9.4025 14.01 9.40874 13.9499C9.54542 12.7911 10.0568 11.7086 10.865 10.8671L14.8173 6.69051C14.9346 6.57334 15.0005 6.41438 15.0006 6.2486C15.0007 6.08282 14.9349 5.9238 14.8177 5.80653C14.7006 5.68925 14.5416 5.62332 14.3758 5.62325C14.21 5.62318 14.051 5.68896 13.9337 5.80614L10.1056 9.85457C10.0673 9.89516 10.0188 9.92474 9.96519 9.94025C9.91157 9.95575 9.85477 9.95661 9.80071 9.94274C9.74664 9.92886 9.69728 9.90076 9.65775 9.86135C9.61822 9.82194 9.58997 9.77266 9.57593 9.71864C9.20562 8.35301 9.3689 6.99364 10.0759 5.82645C11.4712 3.52332 14.7181 2.29051 18.7619 2.52801C18.9148 2.53694 19.0591 2.6017 19.1674 2.71001C19.2757 2.81831 19.3404 2.96261 19.3494 3.11551C19.5837 7.16004 18.3509 10.4069 16.0478 11.8022Z" fill="currentFill"/>
</svg>
