<svg width="24" height="24" viewBox="0 0 24 24" fill="none" xmlns="http://www.w3.org/2000/svg">
  <rect width="24" height="24" fill="transparent"/>
  <rect x="3" y="3" width="18" height="18" fill="transparent"/>

  <g clip-path="url(#clip0)">
    <path d="M16.4075 9.75001L13.1225 4.83001C12.98 4.62001 12.74 4.51501 12.5 4.51501C12.26 4.51501 12.02 4.62001 11.8775 4.83751L8.5925 9.75001H5C4.5875 9.75001 4.25 10.0875 4.25 10.5C4.25 10.5675 4.2575 10.635 4.28 10.7025L6.185 17.655C6.3575 18.285 6.935 18.75 7.625 18.75H17.375C18.065 18.75 18.6425 18.285 18.8225 17.655L20.7275 10.7025L20.75 10.5C20.75 10.0875 20.4125 9.75001 20 9.75001H16.4075ZM10.25 9.75001L12.5 6.45001L14.75 9.75001H10.25ZM12.5 15.75C11.675 15.75 11 15.075 11 14.25C11 13.425 11.675 12.75 12.5 12.75C13.325 12.75 14 13.425 14 14.25C14 15.075 13.325 15.75 12.5 15.75Z" fill="#143149"/>
  </g>
  <defs>
    <clipPath id="clip0">
      <rect width="24" height="24" fill="white" transform="translate(0.5)"/>
    </clipPath>
  </defs>
</svg>
