<svg width="78" height="38" viewBox="0 0 78 38" fill="none" xmlns="http://www.w3.org/2000/svg">
<g id="logo variation side">
<path id="Vector" d="M5.39074 14.0386C5.39071 12.0555 5.96592 10.1169 7.04379 8.46734C8.12166 6.81774 9.6539 5.53104 11.4472 4.76958C13.2405 4.00812 15.2145 3.80602 17.1202 4.18877C19.0259 4.57151 20.7778 5.52197 22.155 6.92021C23.2386 6.37415 24.449 6.14455 25.6523 6.2568C26.8557 6.36905 28.0053 6.81876 28.974 7.55625C29.9427 8.29375 30.6929 9.29032 31.1417 10.4359C31.5905 11.5814 31.7204 12.8313 31.5171 14.0475C31.816 14.0758 32.1061 14.1668 32.3691 14.3146C32.6321 14.4625 32.8624 14.6641 33.0457 14.907C33.229 15.1498 33.3613 15.4285 33.4343 15.7259C33.5074 16.0232 33.5196 16.3328 33.4703 16.6352C32.4828 22.7006 30.0401 26.5397 26.1467 28.1548V29.6539C26.1467 30.5413 25.8014 31.3924 25.1868 32.0199C24.5722 32.6475 23.7387 33 22.8695 33H14.1301C13.2609 33 12.4273 32.6475 11.8127 32.0199C11.1981 31.3924 10.8528 30.5413 10.8528 29.6539V28.1548C6.95946 26.5397 4.5168 22.7006 3.52926 16.6352C3.4816 16.3408 3.49225 16.0397 3.5606 15.7496C3.62894 15.4595 3.75358 15.1864 3.92715 14.9463C4.10071 14.7063 4.31967 14.5043 4.57107 14.3522C4.82246 14.2001 5.10119 14.101 5.39074 14.0609V14.0386ZM7.57558 14.0386H9.76042C9.76042 12.5595 10.3359 11.141 11.3602 10.0951C12.3846 9.04923 13.7739 8.46166 15.2225 8.46166C16.6712 8.46166 18.0605 9.04923 19.0848 10.0951C20.1092 11.141 20.6846 12.5595 20.6846 14.0386H22.8695C22.8695 11.9678 22.0638 9.98193 20.6297 8.51771C19.1957 7.05349 17.2506 6.23091 15.2225 6.23091C13.1944 6.23091 11.2494 7.05349 9.81532 8.51771C8.38124 9.98193 7.57558 11.9678 7.57558 14.0386ZM11.9453 14.0386H18.4998C18.4998 13.1511 18.1545 12.3 17.5399 11.6725C16.9253 11.045 16.0917 10.6924 15.2225 10.6924C14.3533 10.6924 13.5198 11.045 12.9052 11.6725C12.2905 12.3 11.9453 13.1511 11.9453 14.0386ZM26.9464 14.0386H29.2863C29.4513 13.3793 29.4667 12.6903 29.3313 12.0241C29.1959 11.3578 28.9134 10.7319 28.5053 10.1941C28.0971 9.6562 27.5741 9.22056 26.976 8.92034C26.378 8.62012 25.7207 8.46324 25.0543 8.46166C24.5299 8.46166 24.0318 8.55536 23.5686 8.72712C23.9553 9.36066 24.2743 10.0433 24.519 10.7593C24.9352 10.654 25.3724 10.6757 25.7766 10.8217C26.1808 10.9678 26.534 11.2319 26.7925 11.5811C27.0511 11.9303 27.2034 12.3494 27.2308 12.7863C27.2581 13.2231 27.1592 13.6586 26.9464 14.0386ZM23.9619 28.5385H13.0377V29.6539C13.0377 29.9497 13.1528 30.2334 13.3576 30.4426C13.5625 30.6517 13.8404 30.7692 14.1301 30.7692H22.8695C23.1592 30.7692 23.4371 30.6517 23.6419 30.4426C23.8468 30.2334 23.9619 29.9497 23.9619 29.6539V28.5385ZM12.2686 26.3077H24.731C28.1961 25.17 30.3897 21.9533 31.3161 16.2693H5.68351C6.60988 21.9533 8.80346 25.17 12.2686 26.3077Z" fill="#FF7F0F"/>
<g id="Vector_2">
<path d="M44.428 18.08C44.428 18.2827 44.3533 18.4587 44.204 18.608C44.0653 18.7467 43.8947 18.816 43.692 18.816H43.292C42.8013 18.816 42.38 18.6453 42.028 18.304C41.676 17.952 41.5 17.5253 41.5 17.024V8.736C41.5 8.52267 41.5693 8.34667 41.708 8.208C41.8573 8.06933 42.0333 8 42.236 8H42.684C42.8867 8 43.0573 8.06933 43.196 8.208C43.3453 8.34667 43.42 8.52267 43.42 8.736V16.72C43.42 16.8587 43.484 16.928 43.612 16.928H43.692C43.8947 16.928 44.0653 16.9973 44.204 17.136C44.3533 17.2747 44.428 17.4507 44.428 17.664V18.08Z" fill="#FF7F0F"/>
<path d="M51.4799 17.024C51.4799 17.5253 51.3039 17.952 50.9519 18.304C50.6105 18.6453 50.1945 18.816 49.7039 18.816H47.4799C46.9892 18.816 46.5679 18.6453 46.2159 18.304C45.8639 17.952 45.6879 17.5253 45.6879 17.024V11.28C45.6879 11.0667 45.7572 10.8907 45.8959 10.752C46.0452 10.6027 46.2212 10.528 46.4239 10.528H46.8719C47.0745 10.528 47.2452 10.6027 47.3839 10.752C47.5225 10.8907 47.5919 11.0667 47.5919 11.28V16.72C47.5919 16.7733 47.6132 16.8213 47.6559 16.864C47.7092 16.9067 47.7625 16.928 47.8159 16.928H49.3679C49.4212 16.928 49.4692 16.9067 49.5119 16.864C49.5652 16.8213 49.5919 16.7733 49.5919 16.72V11.28C49.5919 11.0667 49.6612 10.8907 49.7999 10.752C49.9385 10.6027 50.1092 10.528 50.3119 10.528H50.7599C50.9625 10.528 51.1332 10.6027 51.2719 10.752C51.4105 10.8907 51.4799 11.0667 51.4799 11.28V17.024Z" fill="#FF7F0F"/>
<path d="M58.5736 18.08C58.5736 18.2827 58.5043 18.4587 58.3656 18.608C58.227 18.7467 58.0563 18.816 57.8536 18.816H57.4056C57.203 18.816 57.0323 18.7467 56.8936 18.608C56.755 18.4587 56.6856 18.2827 56.6856 18.08V12.656C56.6856 12.592 56.659 12.5387 56.6056 12.496C56.563 12.4533 56.515 12.432 56.4616 12.432H54.9096C54.8563 12.432 54.803 12.4533 54.7496 12.496C54.707 12.5387 54.6856 12.592 54.6856 12.656V18.08C54.6856 18.2827 54.6163 18.4587 54.4776 18.608C54.339 18.7467 54.1683 18.816 53.9656 18.816H53.5176C53.315 18.816 53.139 18.7467 52.9896 18.608C52.851 18.4587 52.7816 18.2827 52.7816 18.08V12.32C52.7816 11.9893 52.8616 11.6907 53.0216 11.424C53.1923 11.1467 53.411 10.928 53.6776 10.768C53.9443 10.608 54.243 10.528 54.5736 10.528H56.7976C57.1283 10.528 57.427 10.608 57.6936 10.768C57.9603 10.928 58.1736 11.1467 58.3336 11.424C58.4936 11.6907 58.5736 11.9893 58.5736 12.32V18.08Z" fill="#FF7F0F"/>
<path d="M65.6674 17.024C65.6674 17.5253 65.4914 17.952 65.1394 18.304C64.798 18.6453 64.382 18.816 63.8914 18.816H61.6674C61.1767 18.816 60.7554 18.6453 60.4034 18.304C60.0514 17.952 59.8754 17.5253 59.8754 17.024V12.32C59.8754 11.9893 59.9554 11.6907 60.1154 11.424C60.286 11.1467 60.5047 10.928 60.7714 10.768C61.038 10.608 61.3367 10.528 61.6674 10.528H63.8914C64.222 10.528 64.5207 10.608 64.7874 10.768C65.054 10.928 65.2674 11.1467 65.4274 11.424C65.5874 11.6907 65.6674 11.9893 65.6674 12.32V13.152C65.6674 13.3547 65.598 13.5307 65.4594 13.68C65.3207 13.8187 65.15 13.888 64.9474 13.888H64.4994C64.2967 13.888 64.126 13.8187 63.9874 13.68C63.8487 13.5307 63.7794 13.3547 63.7794 13.152V12.656C63.7794 12.592 63.7527 12.5387 63.6994 12.496C63.6567 12.4533 63.6087 12.432 63.5554 12.432H62.0034C61.95 12.432 61.8967 12.4533 61.8434 12.496C61.8007 12.5387 61.7794 12.592 61.7794 12.656V16.72C61.7794 16.7733 61.8007 16.8213 61.8434 16.864C61.8967 16.9067 61.95 16.928 62.0034 16.928H63.5554C63.6087 16.928 63.6567 16.9067 63.6994 16.864C63.7527 16.8213 63.7794 16.7733 63.7794 16.72V16.224C63.7794 16.0213 63.8487 15.8507 63.9874 15.712C64.126 15.5627 64.2967 15.488 64.4994 15.488H64.9474C65.15 15.488 65.3207 15.5627 65.4594 15.712C65.598 15.8507 65.6674 16.0213 65.6674 16.224V17.024Z" fill="#FF7F0F"/>
<path d="M72.7611 18.08C72.7611 18.2827 72.6918 18.4587 72.5531 18.608C72.4145 18.7467 72.2438 18.816 72.0411 18.816H71.5931C71.3905 18.816 71.2198 18.7467 71.0811 18.608C70.9425 18.4587 70.8731 18.2827 70.8731 18.08V12.656C70.8731 12.592 70.8465 12.5387 70.7931 12.496C70.7505 12.4533 70.7025 12.432 70.6491 12.432H69.0971C69.0438 12.432 68.9905 12.4533 68.9371 12.496C68.8945 12.5387 68.8731 12.592 68.8731 12.656V18.08C68.8731 18.2827 68.8038 18.4587 68.6651 18.608C68.5265 18.7467 68.3558 18.816 68.1531 18.816H67.7051C67.5025 18.816 67.3265 18.7467 67.1771 18.608C67.0385 18.4587 66.9691 18.2827 66.9691 18.08V8.736C66.9691 8.52267 67.0385 8.34667 67.1771 8.208C67.3265 8.06933 67.5025 8 67.7051 8H68.1531C68.3558 8 68.5265 8.06933 68.6651 8.208C68.8038 8.34667 68.8731 8.52267 68.8731 8.736V10.336C68.8731 10.3893 68.8945 10.4373 68.9371 10.48C68.9905 10.512 69.0438 10.528 69.0971 10.528H70.9851C71.3158 10.528 71.6145 10.608 71.8811 10.768C72.1478 10.928 72.3611 11.1467 72.5211 11.424C72.6811 11.6907 72.7611 11.9893 72.7611 12.32V18.08Z" fill="#FF7F0F"/>
<path d="M47.308 29.024C47.308 29.5253 47.132 29.952 46.78 30.304C46.4387 30.6453 46.0227 30.816 45.532 30.816H43.308C42.8173 30.816 42.396 30.6453 42.044 30.304C41.692 29.952 41.516 29.5253 41.516 29.024V27.28C41.516 26.9493 41.596 26.656 41.756 26.4C41.9267 26.1333 42.1453 25.92 42.412 25.76C42.6787 25.6 42.9773 25.52 43.308 25.52H45.196C45.2493 25.52 45.2973 25.4987 45.34 25.456C45.3933 25.4133 45.42 25.36 45.42 25.296V24.656C45.42 24.592 45.3933 24.5387 45.34 24.496C45.2973 24.4533 45.2493 24.432 45.196 24.432H43.308C43.1053 24.432 42.9293 24.3627 42.78 24.224C42.6413 24.0853 42.572 23.9147 42.572 23.712V23.28C42.572 23.0667 42.6413 22.8907 42.78 22.752C42.9293 22.6027 43.1053 22.528 43.308 22.528H45.532C45.8627 22.528 46.1613 22.608 46.428 22.768C46.6947 22.928 46.908 23.1467 47.068 23.424C47.228 23.6907 47.308 23.9893 47.308 24.32V29.024ZM45.42 28.72V27.616C45.42 27.5627 45.3933 27.5147 45.34 27.472C45.2973 27.4293 45.2493 27.408 45.196 27.408H43.644C43.5907 27.408 43.5373 27.4293 43.484 27.472C43.4413 27.5147 43.42 27.5627 43.42 27.616V28.72C43.42 28.7733 43.4413 28.8213 43.484 28.864C43.5373 28.9067 43.5907 28.928 43.644 28.928H45.196C45.2493 28.928 45.2973 28.9067 45.34 28.864C45.3933 28.8213 45.42 28.7733 45.42 28.72Z" fill="#FF7F0F"/>
<path d="M54.4018 29.024C54.4018 29.5253 54.2258 29.952 53.8738 30.304C53.5324 30.6453 53.1164 30.816 52.6258 30.816H50.7378C50.6844 30.816 50.6311 30.8373 50.5778 30.88C50.5351 30.9227 50.5138 30.9707 50.5138 31.024V32.64C50.5138 32.8427 50.4444 33.0133 50.3057 33.152C50.1671 33.3013 49.9964 33.376 49.7937 33.376H49.3457C49.1431 33.376 48.9671 33.3013 48.8177 33.152C48.6791 33.0133 48.6097 32.8427 48.6097 32.64V24.32C48.6097 23.9893 48.6898 23.6907 48.8498 23.424C49.0204 23.1467 49.2391 22.928 49.5057 22.768C49.7724 22.608 50.0711 22.528 50.4018 22.528H52.6258C52.9564 22.528 53.2551 22.608 53.5218 22.768C53.7884 22.928 54.0018 23.1467 54.1618 23.424C54.3218 23.6907 54.4018 23.9893 54.4018 24.32V29.024ZM52.5138 28.72V24.656C52.5138 24.592 52.4871 24.5387 52.4338 24.496C52.3911 24.4533 52.3431 24.432 52.2898 24.432H50.7378C50.6844 24.432 50.6311 24.4533 50.5778 24.496C50.5351 24.5387 50.5138 24.592 50.5138 24.656V28.72C50.5138 28.7733 50.5351 28.8213 50.5778 28.864C50.6311 28.9067 50.6844 28.928 50.7378 28.928H52.2898C52.3431 28.928 52.3911 28.9067 52.4338 28.864C52.4871 28.8213 52.5138 28.7733 52.5138 28.72Z" fill="#FF7F0F"/>
<path d="M61.4955 29.024C61.4955 29.5253 61.3195 29.952 60.9675 30.304C60.6262 30.6453 60.2102 30.816 59.7195 30.816H57.8315C57.7782 30.816 57.7248 30.8373 57.6715 30.88C57.6288 30.9227 57.6075 30.9707 57.6075 31.024V32.64C57.6075 32.8427 57.5382 33.0133 57.3995 33.152C57.2608 33.3013 57.0902 33.376 56.8875 33.376H56.4395C56.2368 33.376 56.0608 33.3013 55.9115 33.152C55.7728 33.0133 55.7035 32.8427 55.7035 32.64V24.32C55.7035 23.9893 55.7835 23.6907 55.9435 23.424C56.1142 23.1467 56.3328 22.928 56.5995 22.768C56.8662 22.608 57.1648 22.528 57.4955 22.528H59.7195C60.0502 22.528 60.3488 22.608 60.6155 22.768C60.8822 22.928 61.0955 23.1467 61.2555 23.424C61.4155 23.6907 61.4955 23.9893 61.4955 24.32V29.024ZM59.6075 28.72V24.656C59.6075 24.592 59.5808 24.5387 59.5275 24.496C59.4848 24.4533 59.4368 24.432 59.3835 24.432H57.8315C57.7782 24.432 57.7248 24.4533 57.6715 24.496C57.6288 24.5387 57.6075 24.592 57.6075 24.656V28.72C57.6075 28.7733 57.6288 28.8213 57.6715 28.864C57.7248 28.9067 57.7782 28.928 57.8315 28.928H59.3835C59.4368 28.928 59.4848 28.9067 59.5275 28.864C59.5808 28.8213 59.6075 28.7733 59.6075 28.72Z" fill="#FF7F0F"/>
</g>
</g>
</svg>
