<svg width="33" height="32" viewBox="0 0 33 32" fill="none" xmlns="http://www.w3.org/2000/svg">
<rect x="1" y="0.5" width="31" height="31" rx="7.5" stroke="#FFA631"/>
<g clip-path="url(#clip0_1007_21566)">
<path d="M20.4075 13.75L17.1225 8.83001C16.98 8.62001 16.74 8.51501 16.5 8.51501C16.26 8.51501 16.02 8.62001 15.8775 8.83751L12.5925 13.75H9C8.5875 13.75 8.25 14.0875 8.25 14.5C8.25 14.5675 8.2575 14.635 8.28 14.7025L10.185 21.655C10.3575 22.285 10.935 22.75 11.625 22.75H21.375C22.065 22.75 22.6425 22.285 22.8225 21.655L24.7275 14.7025L24.75 14.5C24.75 14.0875 24.4125 13.75 24 13.75H20.4075ZM14.25 13.75L16.5 10.45L18.75 13.75H14.25ZM16.5 19.75C15.675 19.75 15 19.075 15 18.25C15 17.425 15.675 16.75 16.5 16.75C17.325 16.75 18 17.425 18 18.25C18 19.075 17.325 19.75 16.5 19.75Z" fill="#143149"/>
</g>
<defs>
<clipPath id="clip0_1007_21566">
<rect width="18" height="18" fill="white" transform="translate(7.5 7)"/>
</clipPath>
</defs>
</svg>
